<?xml version="1.0" standalone="yes"?><svg xmlns="http://www.w3.org/2000/svg" version="1.1" width="228" height="228" viewBox="0 0 228 228" shape-rendering="crispEdges"><rect x="0" y="0" width="228" height="228" fill="#ffffff"/><path fill="#000000" d="M16 16h4v4H16V16M20 16h4v4H20V16M24 16h4v4H24V16M28 16h4v4H28V16M32 16h4v4H32V16M36 16h4v4H36V16M40 16h4v4H40V16M48 16h4v4H48V16M52 16h4v4H52V16M68 16h4v4H68V16M72 16h4v4H72V16M80 16h4v4H80V16M84 16h4v4H84V16M88 16h4v4H88V16M92 16h4v4H92V16M104 16h4v4H104V16M112 16h4v4H112V16M120 16h4v4H120V16M124 16h4v4H124V16M128 16h4v4H128V16M136 16h4v4H136V16M144 16h4v4H144V16M148 16h4v4H148V16M156 16h4v4H156V16M160 16h4v4H160V16M164 16h4v4H164V16M176 16h4v4H176V16M184 16h4v4H184V16M188 16h4v4H188V16M192 16h4v4H192V16M196 16h4v4H196V16M200 16h4v4H200V16M204 16h4v4H204V16M208 16h4v4H208V16M16 20h4v4H16V20M40 20h4v4H40V20M48 20h4v4H48V20M56 20h4v4H56V20M60 20h4v4H60V20M68 20h4v4H68V20M84 20h4v4H84V20M100 20h4v4H100V20M104 20h4v4H104V20M112 20h4v4H112V20M116 20h4v4H116V20M124 20h4v4H124V20M128 20h4v4H128V20M136 20h4v4H136V20M152 20h4v4H152V20M156 20h4v4H156V20M160 20h4v4H160V20M164 20h4v4H164V20M168 20h4v4H168V20M172 20h4v4H172V20M176 20h4v4H176V20M184 20h4v4H184V20M208 20h4v4H208V20M16 24h4v4H16V24M24 24h4v4H24V24M28 24h4v4H28V24M32 24h4v4H32V24M40 24h4v4H40V24M48 24h4v4H48V24M52 24h4v4H52V24M56 24h4v4H56V24M60 24h4v4H60V24M76 24h4v4H76V24M80 24h4v4H80V24M96 24h4v4H96V24M100 24h4v4H100V24M104 24h4v4H104V24M112 24h4v4H112V24M124 24h4v4H124V24M144 24h4v4H144V24M148 24h4v4H148V24M156 24h4v4H156V24M172 24h4v4H172V24M176 24h4v4H176V24M184 24h4v4H184V24M192 24h4v4H192V24M196 24h4v4H196V24M200 24h4v4H200V24M208 24h4v4H208V24M16 28h4v4H16V28M24 28h4v4H24V28M28 28h4v4H28V28M32 28h4v4H32V28M40 28h4v4H40V28M56 28h4v4H56V28M60 28h4v4H60V28M68 28h4v4H68V28M72 28h4v4H72V28M76 28h4v4H76V28M80 28h4v4H80V28M84 28h4v4H84V28M88 28h4v4H88V28M100 28h4v4H100V28M112 28h4v4H112V28M116 28h4v4H116V28M124 28h4v4H124V28M132 28h4v4H132V28M136 28h4v4H136V28M140 28h4v4H140V28M152 28h4v4H152V28M156 28h4v4H156V28M160 28h4v4H160V28M164 28h4v4H164V28M172 28h4v4H172V28M184 28h4v4H184V28M192 28h4v4H192V28M196 28h4v4H196V28M200 28h4v4H200V28M208 28h4v4H208V28M16 32h4v4H16V32M24 32h4v4H24V32M28 32h4v4H28V32M32 32h4v4H32V32M40 32h4v4H40V32M52 32h4v4H52V32M64 32h4v4H64V32M68 32h4v4H68V32M76 32h4v4H76V32M84 32h4v4H84V32M92 32h4v4H92V32M96 32h4v4H96V32M104 32h4v4H104V32M108 32h4v4H108V32M112 32h4v4H112V32M116 32h4v4H116V32M120 32h4v4H120V32M132 32h4v4H132V32M144 32h4v4H144V32M148 32h4v4H148V32M156 32h4v4H156V32M184 32h4v4H184V32M192 32h4v4H192V32M196 32h4v4H196V32M200 32h4v4H200V32M208 32h4v4H208V32M16 36h4v4H16V36M40 36h4v4H40V36M48 36h4v4H48V36M56 36h4v4H56V36M60 36h4v4H60V36M64 36h4v4H64V36M68 36h4v4H68V36M72 36h4v4H72V36M76 36h4v4H76V36M84 36h4v4H84V36M88 36h4v4H88V36M92 36h4v4H92V36M100 36h4v4H100V36M104 36h4v4H104V36M120 36h4v4H120V36M128 36h4v4H128V36M132 36h4v4H132V36M140 36h4v4H140V36M144 36h4v4H144V36M148 36h4v4H148V36M152 36h4v4H152V36M156 36h4v4H156V36M164 36h4v4H164V36M168 36h4v4H168V36M184 36h4v4H184V36M208 36h4v4H208V36M16 40h4v4H16V40M20 40h4v4H20V40M24 40h4v4H24V40M28 40h4v4H28V40M32 40h4v4H32V40M36 40h4v4H36V40M40 40h4v4H40V40M48 40h4v4H48V40M56 40h4v4H56V40M64 40h4v4H64V40M72 40h4v4H72V40M80 40h4v4H80V40M88 40h4v4H88V40M96 40h4v4H96V40M104 40h4v4H104V40M112 40h4v4H112V40M120 40h4v4H120V40M128 40h4v4H128V40M136 40h4v4H136V40M144 40h4v4H144V40M152 40h4v4H152V40M160 40h4v4H160V40M168 40h4v4H168V40M176 40h4v4H176V40M184 40h4v4H184V40M188 40h4v4H188V40M192 40h4v4H192V40M196 40h4v4H196V40M200 40h4v4H200V40M204 40h4v4H204V40M208 40h4v4H208V40M48 44h4v4H48V44M64 44h4v4H64V44M72 44h4v4H72V44M96 44h4v4H96V44M104 44h4v4H104V44M120 44h4v4H120V44M132 44h4v4H132V44M140 44h4v4H140V44M148 44h4v4H148V44M160 44h4v4H160V44M168 44h4v4H168V44M172 44h4v4H172V44M24 48h4v4H24V48M28 48h4v4H28V48M32 48h4v4H32V48M40 48h4v4H40V48M48 48h4v4H48V48M56 48h4v4H56V48M64 48h4v4H64V48M76 48h4v4H76V48M80 48h4v4H80V48M100 48h4v4H100V48M104 48h4v4H104V48M108 48h4v4H108V48M112 48h4v4H112V48M116 48h4v4H116V48M120 48h4v4H120V48M148 48h4v4H148V48M152 48h4v4H152V48M156 48h4v4H156V48M168 48h4v4H168V48M172 48h4v4H172V48M176 48h4v4H176V48M180 48h4v4H180V48M184 48h4v4H184V48M188 48h4v4H188V48M200 48h4v4H200V48M204 48h4v4H204V48M208 48h4v4H208V48M20 52h4v4H20V52M28 52h4v4H28V52M44 52h4v4H44V52M48 52h4v4H48V52M52 52h4v4H52V52M56 52h4v4H56V52M60 52h4v4H60V52M64 52h4v4H64V52M68 52h4v4H68V52M72 52h4v4H72V52M76 52h4v4H76V52M80 52h4v4H80V52M84 52h4v4H84V52M92 52h4v4H92V52M100 52h4v4H100V52M104 52h4v4H104V52M108 52h4v4H108V52M120 52h4v4H120V52M128 52h4v4H128V52M136 52h4v4H136V52M140 52h4v4H140V52M144 52h4v4H144V52M148 52h4v4H148V52M164 52h4v4H164V52M196 52h4v4H196V52M16 56h4v4H16V56M28 56h4v4H28V56M36 56h4v4H36V56M40 56h4v4H40V56M44 56h4v4H44V56M48 56h4v4H48V56M60 56h4v4H60V56M76 56h4v4H76V56M92 56h4v4H92V56M96 56h4v4H96V56M100 56h4v4H100V56M104 56h4v4H104V56M124 56h4v4H124V56M132 56h4v4H132V56M144 56h4v4H144V56M148 56h4v4H148V56M152 56h4v4H152V56M156 56h4v4H156V56M164 56h4v4H164V56M168 56h4v4H168V56M172 56h4v4H172V56M176 56h4v4H176V56M180 56h4v4H180V56M188 56h4v4H188V56M16 60h4v4H16V60M28 60h4v4H28V60M32 60h4v4H32V60M36 60h4v4H36V60M48 60h4v4H48V60M52 60h4v4H52V60M64 60h4v4H64V60M68 60h4v4H68V60M72 60h4v4H72V60M76 60h4v4H76V60M80 60h4v4H80V60M88 60h4v4H88V60M96 60h4v4H96V60M104 60h4v4H104V60M108 60h4v4H108V60M112 60h4v4H112V60M116 60h4v4H116V60M120 60h4v4H120V60M124 60h4v4H124V60M132 60h4v4H132V60M136 60h4v4H136V60M144 60h4v4H144V60M148 60h4v4H148V60M156 60h4v4H156V60M180 60h4v4H180V60M188 60h4v4H188V60M192 60h4v4H192V60M196 60h4v4H196V60M200 60h4v4H200V60M16 64h4v4H16V64M20 64h4v4H20V64M28 64h4v4H28V64M32 64h4v4H32V64M40 64h4v4H40V64M44 64h4v4H44V64M48 64h4v4H48V64M56 64h4v4H56V64M60 64h4v4H60V64M64 64h4v4H64V64M76 64h4v4H76V64M92 64h4v4H92V64M96 64h4v4H96V64M108 64h4v4H108V64M112 64h4v4H112V64M120 64h4v4H120V64M128 64h4v4H128V64M136 64h4v4H136V64M148 64h4v4H148V64M152 64h4v4H152V64M156 64h4v4H156V64M160 64h4v4H160V64M164 64h4v4H164V64M168 64h4v4H168V64M172 64h4v4H172V64M176 64h4v4H176V64M184 64h4v4H184V64M196 64h4v4H196V64M200 64h4v4H200V64M204 64h4v4H204V64M28 68h4v4H28V68M32 68h4v4H32V68M36 68h4v4H36V68M48 68h4v4H48V68M56 68h4v4H56V68M72 68h4v4H72V68M76 68h4v4H76V68M80 68h4v4H80V68M92 68h4v4H92V68M96 68h4v4H96V68M100 68h4v4H100V68M108 68h4v4H108V68M120 68h4v4H120V68M124 68h4v4H124V68M128 68h4v4H128V68M140 68h4v4H140V68M144 68h4v4H144V68M148 68h4v4H148V68M156 68h4v4H156V68M160 68h4v4H160V68M164 68h4v4H164V68M184 68h4v4H184V68M204 68h4v4H204V68M32 72h4v4H32V72M36 72h4v4H36V72M40 72h4v4H40V72M48 72h4v4H48V72M60 72h4v4H60V72M64 72h4v4H64V72M84 72h4v4H84V72M92 72h4v4H92V72M96 72h4v4H96V72M100 72h4v4H100V72M116 72h4v4H116V72M128 72h4v4H128V72M132 72h4v4H132V72M136 72h4v4H136V72M144 72h4v4H144V72M152 72h4v4H152V72M156 72h4v4H156V72M160 72h4v4H160V72M164 72h4v4H164V72M168 72h4v4H168V72M172 72h4v4H172V72M188 72h4v4H188V72M204 72h4v4H204V72M208 72h4v4H208V72M16 76h4v4H16V76M32 76h4v4H32V76M48 76h4v4H48V76M64 76h4v4H64V76M68 76h4v4H68V76M84 76h4v4H84V76M88 76h4v4H88V76M108 76h4v4H108V76M112 76h4v4H112V76M128 76h4v4H128V76M140 76h4v4H140V76M144 76h4v4H144V76M148 76h4v4H148V76M180 76h4v4H180V76M192 76h4v4H192V76M196 76h4v4H196V76M204 76h4v4H204V76M16 80h4v4H16V80M28 80h4v4H28V80M32 80h4v4H32V80M40 80h4v4H40V80M44 80h4v4H44V80M56 80h4v4H56V80M60 80h4v4H60V80M68 80h4v4H68V80M72 80h4v4H72V80M80 80h4v4H80V80M88 80h4v4H88V80M100 80h4v4H100V80M104 80h4v4H104V80M108 80h4v4H108V80M116 80h4v4H116V80M120 80h4v4H120V80M124 80h4v4H124V80M132 80h4v4H132V80M136 80h4v4H136V80M140 80h4v4H140V80M156 80h4v4H156V80M164 80h4v4H164V80M172 80h4v4H172V80M196 80h4v4H196V80M208 80h4v4H208V80M20 84h4v4H20V84M36 84h4v4H36V84M48 84h4v4H48V84M52 84h4v4H52V84M56 84h4v4H56V84M72 84h4v4H72V84M76 84h4v4H76V84M80 84h4v4H80V84M84 84h4v4H84V84M92 84h4v4H92V84M104 84h4v4H104V84M120 84h4v4H120V84M132 84h4v4H132V84M140 84h4v4H140V84M144 84h4v4H144V84M148 84h4v4H148V84M156 84h4v4H156V84M160 84h4v4H160V84M176 84h4v4H176V84M180 84h4v4H180V84M192 84h4v4H192V84M200 84h4v4H200V84M16 88h4v4H16V88M20 88h4v4H20V88M24 88h4v4H24V88M28 88h4v4H28V88M40 88h4v4H40V88M60 88h4v4H60V88M80 88h4v4H80V88M84 88h4v4H84V88M92 88h4v4H92V88M104 88h4v4H104V88M116 88h4v4H116V88M132 88h4v4H132V88M136 88h4v4H136V88M140 88h4v4H140V88M144 88h4v4H144V88M160 88h4v4H160V88M164 88h4v4H164V88M172 88h4v4H172V88M176 88h4v4H176V88M184 88h4v4H184V88M200 88h4v4H200V88M208 88h4v4H208V88M16 92h4v4H16V92M20 92h4v4H20V92M28 92h4v4H28V92M32 92h4v4H32V92M36 92h4v4H36V92M44 92h4v4H44V92M48 92h4v4H48V92M52 92h4v4H52V92M56 92h4v4H56V92M88 92h4v4H88V92M96 92h4v4H96V92M100 92h4v4H100V92M104 92h4v4H104V92M112 92h4v4H112V92M116 92h4v4H116V92M120 92h4v4H120V92M124 92h4v4H124V92M128 92h4v4H128V92M132 92h4v4H132V92M136 92h4v4H136V92M156 92h4v4H156V92M168 92h4v4H168V92M176 92h4v4H176V92M184 92h4v4H184V92M192 92h4v4H192V92M208 92h4v4H208V92M32 96h4v4H32V96M40 96h4v4H40V96M44 96h4v4H44V96M52 96h4v4H52V96M56 96h4v4H56V96M64 96h4v4H64V96M68 96h4v4H68V96M72 96h4v4H72V96M76 96h4v4H76V96M80 96h4v4H80V96M96 96h4v4H96V96M104 96h4v4H104V96M116 96h4v4H116V96M124 96h4v4H124V96M128 96h4v4H128V96M132 96h4v4H132V96M136 96h4v4H136V96M148 96h4v4H148V96M160 96h4v4H160V96M176 96h4v4H176V96M180 96h4v4H180V96M184 96h4v4H184V96M188 96h4v4H188V96M200 96h4v4H200V96M208 96h4v4H208V96M20 100h4v4H20V100M28 100h4v4H28V100M36 100h4v4H36V100M48 100h4v4H48V100M56 100h4v4H56V100M60 100h4v4H60V100M72 100h4v4H72V100M80 100h4v4H80V100M96 100h4v4H96V100M100 100h4v4H100V100M104 100h4v4H104V100M108 100h4v4H108V100M120 100h4v4H120V100M128 100h4v4H128V100M132 100h4v4H132V100M140 100h4v4H140V100M156 100h4v4H156V100M160 100h4v4H160V100M180 100h4v4H180V100M184 100h4v4H184V100M200 100h4v4H200V100M20 104h4v4H20V104M28 104h4v4H28V104M32 104h4v4H32V104M36 104h4v4H36V104M40 104h4v4H40V104M44 104h4v4H44V104M48 104h4v4H48V104M52 104h4v4H52V104M56 104h4v4H56V104M64 104h4v4H64V104M72 104h4v4H72V104M76 104h4v4H76V104M80 104h4v4H80V104M88 104h4v4H88V104M96 104h4v4H96V104M100 104h4v4H100V104M104 104h4v4H104V104M108 104h4v4H108V104M112 104h4v4H112V104M116 104h4v4H116V104M120 104h4v4H120V104M128 104h4v4H128V104M132 104h4v4H132V104M136 104h4v4H136V104M140 104h4v4H140V104M148 104h4v4H148V104M152 104h4v4H152V104M156 104h4v4H156V104M164 104h4v4H164V104M168 104h4v4H168V104M176 104h4v4H176V104M180 104h4v4H180V104M184 104h4v4H184V104M188 104h4v4H188V104M192 104h4v4H192V104M200 104h4v4H200V104M204 104h4v4H204V104M208 104h4v4H208V104M24 108h4v4H24V108M28 108h4v4H28V108M32 108h4v4H32V108M48 108h4v4H48V108M52 108h4v4H52V108M56 108h4v4H56V108M68 108h4v4H68V108M72 108h4v4H72V108M92 108h4v4H92V108M96 108h4v4H96V108M104 108h4v4H104V108M120 108h4v4H120V108M136 108h4v4H136V108M152 108h4v4H152V108M172 108h4v4H172V108M176 108h4v4H176V108M192 108h4v4H192V108M16 112h4v4H16V112M20 112h4v4H20V112M24 112h4v4H24V112M28 112h4v4H28V112M32 112h4v4H32V112M40 112h4v4H40V112M48 112h4v4H48V112M56 112h4v4H56V112M60 112h4v4H60V112M80 112h4v4H80V112M88 112h4v4H88V112M104 112h4v4H104V112M112 112h4v4H112V112M120 112h4v4H120V112M136 112h4v4H136V112M140 112h4v4H140V112M144 112h4v4H144V112M152 112h4v4H152V112M156 112h4v4H156V112M160 112h4v4H160V112M164 112h4v4H164V112M168 112h4v4H168V112M172 112h4v4H172V112M176 112h4v4H176V112M184 112h4v4H184V112M192 112h4v4H192V112M200 112h4v4H200V112M204 112h4v4H204V112M208 112h4v4H208V112M20 116h4v4H20V116M28 116h4v4H28V116M32 116h4v4H32V116M48 116h4v4H48V116M56 116h4v4H56V116M68 116h4v4H68V116M72 116h4v4H72V116M76 116h4v4H76V116M80 116h4v4H80V116M84 116h4v4H84V116M92 116h4v4H92V116M96 116h4v4H96V116M100 116h4v4H100V116M104 116h4v4H104V116M120 116h4v4H120V116M128 116h4v4H128V116M132 116h4v4H132V116M144 116h4v4H144V116M160 116h4v4H160V116M164 116h4v4H164V116M176 116h4v4H176V116M192 116h4v4H192V116M196 116h4v4H196V116M24 120h4v4H24V120M32 120h4v4H32V120M36 120h4v4H36V120M40 120h4v4H40V120M44 120h4v4H44V120M48 120h4v4H48V120M56 120h4v4H56V120M60 120h4v4H60V120M80 120h4v4H80V120M88 120h4v4H88V120M92 120h4v4H92V120M104 120h4v4H104V120M108 120h4v4H108V120M112 120h4v4H112V120M116 120h4v4H116V120M120 120h4v4H120V120M140 120h4v4H140V120M144 120h4v4H144V120M152 120h4v4H152V120M156 120h4v4H156V120M160 120h4v4H160V120M168 120h4v4H168V120M172 120h4v4H172V120M176 120h4v4H176V120M180 120h4v4H180V120M184 120h4v4H184V120M188 120h4v4H188V120M192 120h4v4H192V120M196 120h4v4H196V120M200 120h4v4H200V120M204 120h4v4H204V120M208 120h4v4H208V120M44 124h4v4H44V124M48 124h4v4H48V124M52 124h4v4H52V124M68 124h4v4H68V124M72 124h4v4H72V124M76 124h4v4H76V124M80 124h4v4H80V124M96 124h4v4H96V124M100 124h4v4H100V124M104 124h4v4H104V124M108 124h4v4H108V124M116 124h4v4H116V124M124 124h4v4H124V124M128 124h4v4H128V124M136 124h4v4H136V124M144 124h4v4H144V124M148 124h4v4H148V124M164 124h4v4H164V124M172 124h4v4H172V124M180 124h4v4H180V124M204 124h4v4H204V124M208 124h4v4H208V124M16 128h4v4H16V128M20 128h4v4H20V128M24 128h4v4H24V128M28 128h4v4H28V128M36 128h4v4H36V128M40 128h4v4H40V128M52 128h4v4H52V128M60 128h4v4H60V128M68 128h4v4H68V128M76 128h4v4H76V128M96 128h4v4H96V128M100 128h4v4H100V128M104 128h4v4H104V128M124 128h4v4H124V128M128 128h4v4H128V128M136 128h4v4H136V128M140 128h4v4H140V128M148 128h4v4H148V128M160 128h4v4H160V128M168 128h4v4H168V128M172 128h4v4H172V128M180 128h4v4H180V128M184 128h4v4H184V128M188 128h4v4H188V128M196 128h4v4H196V128M200 128h4v4H200V128M204 128h4v4H204V128M16 132h4v4H16V132M20 132h4v4H20V132M24 132h4v4H24V132M32 132h4v4H32V132M44 132h4v4H44V132M56 132h4v4H56V132M64 132h4v4H64V132M72 132h4v4H72V132M88 132h4v4H88V132M112 132h4v4H112V132M116 132h4v4H116V132M124 132h4v4H124V132M136 132h4v4H136V132M140 132h4v4H140V132M152 132h4v4H152V132M156 132h4v4H156V132M164 132h4v4H164V132M172 132h4v4H172V132M176 132h4v4H176V132M180 132h4v4H180V132M184 132h4v4H184V132M196 132h4v4H196V132M200 132h4v4H200V132M204 132h4v4H204V132M208 132h4v4H208V132M20 136h4v4H20V136M24 136h4v4H24V136M36 136h4v4H36V136M40 136h4v4H40V136M44 136h4v4H44V136M64 136h4v4H64V136M68 136h4v4H68V136M80 136h4v4H80V136M84 136h4v4H84V136M100 136h4v4H100V136M104 136h4v4H104V136M112 136h4v4H112V136M116 136h4v4H116V136M120 136h4v4H120V136M124 136h4v4H124V136M156 136h4v4H156V136M172 136h4v4H172V136M176 136h4v4H176V136M184 136h4v4H184V136M188 136h4v4H188V136M208 136h4v4H208V136M16 140h4v4H16V140M20 140h4v4H20V140M24 140h4v4H24V140M36 140h4v4H36V140M44 140h4v4H44V140M48 140h4v4H48V140M52 140h4v4H52V140M60 140h4v4H60V140M68 140h4v4H68V140M72 140h4v4H72V140M84 140h4v4H84V140M88 140h4v4H88V140M92 140h4v4H92V140M96 140h4v4H96V140M112 140h4v4H112V140M120 140h4v4H120V140M124 140h4v4H124V140M128 140h4v4H128V140M132 140h4v4H132V140M136 140h4v4H136V140M140 140h4v4H140V140M156 140h4v4H156V140M160 140h4v4H160V140M164 140h4v4H164V140M168 140h4v4H168V140M180 140h4v4H180V140M20 144h4v4H20V144M24 144h4v4H24V144M28 144h4v4H28V144M40 144h4v4H40V144M44 144h4v4H44V144M48 144h4v4H48V144M52 144h4v4H52V144M56 144h4v4H56V144M68 144h4v4H68V144M72 144h4v4H72V144M76 144h4v4H76V144M80 144h4v4H80V144M88 144h4v4H88V144M92 144h4v4H92V144M108 144h4v4H108V144M112 144h4v4H112V144M116 144h4v4H116V144M124 144h4v4H124V144M128 144h4v4H128V144M148 144h4v4H148V144M160 144h4v4H160V144M164 144h4v4H164V144M168 144h4v4H168V144M172 144h4v4H172V144M176 144h4v4H176V144M180 144h4v4H180V144M200 144h4v4H200V144M204 144h4v4H204V144M208 144h4v4H208V144M44 148h4v4H44V148M52 148h4v4H52V148M56 148h4v4H56V148M60 148h4v4H60V148M68 148h4v4H68V148M76 148h4v4H76V148M84 148h4v4H84V148M88 148h4v4H88V148M104 148h4v4H104V148M108 148h4v4H108V148M128 148h4v4H128V148M136 148h4v4H136V148M140 148h4v4H140V148M156 148h4v4H156V148M160 148h4v4H160V148M164 148h4v4H164V148M172 148h4v4H172V148M180 148h4v4H180V148M184 148h4v4H184V148M204 148h4v4H204V148M16 152h4v4H16V152M28 152h4v4H28V152M32 152h4v4H32V152M40 152h4v4H40V152M52 152h4v4H52V152M56 152h4v4H56V152M60 152h4v4H60V152M64 152h4v4H64V152M68 152h4v4H68V152M76 152h4v4H76V152M84 152h4v4H84V152M88 152h4v4H88V152M104 152h4v4H104V152M108 152h4v4H108V152M112 152h4v4H112V152M120 152h4v4H120V152M136 152h4v4H136V152M148 152h4v4H148V152M160 152h4v4H160V152M164 152h4v4H164V152M180 152h4v4H180V152M184 152h4v4H184V152M200 152h4v4H200V152M204 152h4v4H204V152M208 152h4v4H208V152M28 156h4v4H28V156M36 156h4v4H36V156M48 156h4v4H48V156M52 156h4v4H52V156M56 156h4v4H56V156M64 156h4v4H64V156M80 156h4v4H80V156M88 156h4v4H88V156M96 156h4v4H96V156M100 156h4v4H100V156M108 156h4v4H108V156M116 156h4v4H116V156M120 156h4v4H120V156M124 156h4v4H124V156M128 156h4v4H128V156M132 156h4v4H132V156M144 156h4v4H144V156M152 156h4v4H152V156M172 156h4v4H172V156M176 156h4v4H176V156M184 156h4v4H184V156M188 156h4v4H188V156M196 156h4v4H196V156M200 156h4v4H200V156M204 156h4v4H204V156M16 160h4v4H16V160M20 160h4v4H20V160M36 160h4v4H36V160M40 160h4v4H40V160M44 160h4v4H44V160M48 160h4v4H48V160M56 160h4v4H56V160M60 160h4v4H60V160M64 160h4v4H64V160M68 160h4v4H68V160M76 160h4v4H76V160M92 160h4v4H92V160M100 160h4v4H100V160M104 160h4v4H104V160M108 160h4v4H108V160M116 160h4v4H116V160M128 160h4v4H128V160M136 160h4v4H136V160M140 160h4v4H140V160M156 160h4v4H156V160M160 160h4v4H160V160M164 160h4v4H164V160M168 160h4v4H168V160M172 160h4v4H172V160M176 160h4v4H176V160M184 160h4v4H184V160M188 160h4v4H188V160M16 164h4v4H16V164M24 164h4v4H24V164M28 164h4v4H28V164M36 164h4v4H36V164M52 164h4v4H52V164M64 164h4v4H64V164M76 164h4v4H76V164M92 164h4v4H92V164M96 164h4v4H96V164M100 164h4v4H100V164M108 164h4v4H108V164M120 164h4v4H120V164M132 164h4v4H132V164M136 164h4v4H136V164M144 164h4v4H144V164M156 164h4v4H156V164M160 164h4v4H160V164M164 164h4v4H164V164M172 164h4v4H172V164M176 164h4v4H176V164M184 164h4v4H184V164M200 164h4v4H200V164M20 168h4v4H20V168M36 168h4v4H36V168M40 168h4v4H40V168M48 168h4v4H48V168M52 168h4v4H52V168M56 168h4v4H56V168M68 168h4v4H68V168M80 168h4v4H80V168M96 168h4v4H96V168M112 168h4v4H112V168M116 168h4v4H116V168M124 168h4v4H124V168M132 168h4v4H132V168M136 168h4v4H136V168M140 168h4v4H140V168M144 168h4v4H144V168M148 168h4v4H148V168M152 168h4v4H152V168M156 168h4v4H156V168M160 168h4v4H160V168M164 168h4v4H164V168M168 168h4v4H168V168M172 168h4v4H172V168M176 168h4v4H176V168M184 168h4v4H184V168M188 168h4v4H188V168M196 168h4v4H196V168M200 168h4v4H200V168M204 168h4v4H204V168M208 168h4v4H208V168M20 172h4v4H20V172M24 172h4v4H24V172M28 172h4v4H28V172M44 172h4v4H44V172M48 172h4v4H48V172M60 172h4v4H60V172M64 172h4v4H64V172M80 172h4v4H80V172M92 172h4v4H92V172M96 172h4v4H96V172M104 172h4v4H104V172M112 172h4v4H112V172M132 172h4v4H132V172M140 172h4v4H140V172M144 172h4v4H144V172M152 172h4v4H152V172M160 172h4v4H160V172M164 172h4v4H164V172M168 172h4v4H168V172M176 172h4v4H176V172M200 172h4v4H200V172M204 172h4v4H204V172M208 172h4v4H208V172M16 176h4v4H16V176M20 176h4v4H20V176M24 176h4v4H24V176M40 176h4v4H40V176M44 176h4v4H44V176M48 176h4v4H48V176M52 176h4v4H52V176M56 176h4v4H56V176M72 176h4v4H72V176M76 176h4v4H76V176M88 176h4v4H88V176M92 176h4v4H92V176M96 176h4v4H96V176M100 176h4v4H100V176M104 176h4v4H104V176M108 176h4v4H108V176M112 176h4v4H112V176M116 176h4v4H116V176M120 176h4v4H120V176M128 176h4v4H128V176M136 176h4v4H136V176M140 176h4v4H140V176M148 176h4v4H148V176M152 176h4v4H152V176M168 176h4v4H168V176M172 176h4v4H172V176M176 176h4v4H176V176M180 176h4v4H180V176M184 176h4v4H184V176M188 176h4v4H188V176M192 176h4v4H192V176M196 176h4v4H196V176M204 176h4v4H204V176M208 176h4v4H208V176M48 180h4v4H48V180M52 180h4v4H52V180M64 180h4v4H64V180M76 180h4v4H76V180M80 180h4v4H80V180M84 180h4v4H84V180M88 180h4v4H88V180M92 180h4v4H92V180M96 180h4v4H96V180M104 180h4v4H104V180M120 180h4v4H120V180M124 180h4v4H124V180M140 180h4v4H140V180M152 180h4v4H152V180M160 180h4v4H160V180M164 180h4v4H164V180M168 180h4v4H168V180M176 180h4v4H176V180M192 180h4v4H192V180M204 180h4v4H204V180M16 184h4v4H16V184M20 184h4v4H20V184M24 184h4v4H24V184M28 184h4v4H28V184M32 184h4v4H32V184M36 184h4v4H36V184M40 184h4v4H40V184M52 184h4v4H52V184M68 184h4v4H68V184M72 184h4v4H72V184M80 184h4v4H80V184M88 184h4v4H88V184M92 184h4v4H92V184M100 184h4v4H100V184M104 184h4v4H104V184M112 184h4v4H112V184M120 184h4v4H120V184M124 184h4v4H124V184M128 184h4v4H128V184M132 184h4v4H132V184M136 184h4v4H136V184M140 184h4v4H140V184M144 184h4v4H144V184M148 184h4v4H148V184M156 184h4v4H156V184M160 184h4v4H160V184M172 184h4v4H172V184M176 184h4v4H176V184M184 184h4v4H184V184M192 184h4v4H192V184M196 184h4v4H196V184M204 184h4v4H204V184M208 184h4v4H208V184M16 188h4v4H16V188M40 188h4v4H40V188M56 188h4v4H56V188M60 188h4v4H60V188M76 188h4v4H76V188M80 188h4v4H80V188M84 188h4v4H84V188M96 188h4v4H96V188M100 188h4v4H100V188M104 188h4v4H104V188M120 188h4v4H120V188M124 188h4v4H124V188M136 188h4v4H136V188M144 188h4v4H144V188M152 188h4v4H152V188M160 188h4v4H160V188M168 188h4v4H168V188M176 188h4v4H176V188M192 188h4v4H192V188M208 188h4v4H208V188M16 192h4v4H16V192M24 192h4v4H24V192M28 192h4v4H28V192M32 192h4v4H32V192M40 192h4v4H40V192M48 192h4v4H48V192M56 192h4v4H56V192M60 192h4v4H60V192M64 192h4v4H64V192M68 192h4v4H68V192M76 192h4v4H76V192M80 192h4v4H80V192M92 192h4v4H92V192M104 192h4v4H104V192M108 192h4v4H108V192M112 192h4v4H112V192M116 192h4v4H116V192M120 192h4v4H120V192M136 192h4v4H136V192M140 192h4v4H140V192M152 192h4v4H152V192M156 192h4v4H156V192M160 192h4v4H160V192M168 192h4v4H168V192M172 192h4v4H172V192M176 192h4v4H176V192M180 192h4v4H180V192M184 192h4v4H184V192M188 192h4v4H188V192M192 192h4v4H192V192M200 192h4v4H200V192M204 192h4v4H204V192M208 192h4v4H208V192M16 196h4v4H16V196M24 196h4v4H24V196M28 196h4v4H28V196M32 196h4v4H32V196M40 196h4v4H40V196M48 196h4v4H48V196M52 196h4v4H52V196M60 196h4v4H60V196M68 196h4v4H68V196M76 196h4v4H76V196M80 196h4v4H80V196M96 196h4v4H96V196M100 196h4v4H100V196M124 196h4v4H124V196M128 196h4v4H128V196M140 196h4v4H140V196M144 196h4v4H144V196M180 196h4v4H180V196M184 196h4v4H184V196M188 196h4v4H188V196M192 196h4v4H192V196M196 196h4v4H196V196M16 200h4v4H16V200M24 200h4v4H24V200M28 200h4v4H28V200M32 200h4v4H32V200M40 200h4v4H40V200M48 200h4v4H48V200M52 200h4v4H52V200M60 200h4v4H60V200M64 200h4v4H64V200M68 200h4v4H68V200M72 200h4v4H72V200M76 200h4v4H76V200M84 200h4v4H84V200M88 200h4v4H88V200M92 200h4v4H92V200M96 200h4v4H96V200M100 200h4v4H100V200M104 200h4v4H104V200M112 200h4v4H112V200M116 200h4v4H116V200M120 200h4v4H120V200M124 200h4v4H124V200M132 200h4v4H132V200M152 200h4v4H152V200M156 200h4v4H156V200M160 200h4v4H160V200M168 200h4v4H168V200M172 200h4v4H172V200M188 200h4v4H188V200M208 200h4v4H208V200M16 204h4v4H16V204M40 204h4v4H40V204M56 204h4v4H56V204M64 204h4v4H64V204M72 204h4v4H72V204M80 204h4v4H80V204M84 204h4v4H84V204M88 204h4v4H88V204M100 204h4v4H100V204M104 204h4v4H104V204M112 204h4v4H112V204M124 204h4v4H124V204M128 204h4v4H128V204M132 204h4v4H132V204M144 204h4v4H144V204M148 204h4v4H148V204M164 204h4v4H164V204M168 204h4v4H168V204M180 204h4v4H180V204M184 204h4v4H184V204M188 204h4v4H188V204M208 204h4v4H208V204M16 208h4v4H16V208M20 208h4v4H20V208M24 208h4v4H24V208M28 208h4v4H28V208M32 208h4v4H32V208M36 208h4v4H36V208M40 208h4v4H40V208M52 208h4v4H52V208M56 208h4v4H56V208M60 208h4v4H60V208M64 208h4v4H64V208M68 208h4v4H68V208M72 208h4v4H72V208M84 208h4v4H84V208M92 208h4v4H92V208M96 208h4v4H96V208M100 208h4v4H100V208M108 208h4v4H108V208M112 208h4v4H112V208M116 208h4v4H116V208M120 208h4v4H120V208M124 208h4v4H124V208M132 208h4v4H132V208M136 208h4v4H136V208M140 208h4v4H140V208M152 208h4v4H152V208M156 208h4v4H156V208M160 208h4v4H160V208M164 208h4v4H164V208M168 208h4v4H168V208M172 208h4v4H172V208M188 208h4v4H188V208M200 208h4v4H200V208M204 208h4v4H204V208M208 208h4v4H208V208"/></svg>